<svg id="Layer_1" data-name="Layer 1" xmlns="http://www.w3.org/2000/svg" xmlns:xlink="http://www.w3.org/1999/xlink" viewBox="0 0 748.88 127.82"><defs><linearGradient id="linear-gradient" x1="16.16" y1="76.66" x2="765.04" y2="76.66" gradientUnits="userSpaceOnUse"><stop offset="0" stop-color="#ff9e15"/><stop offset="1" stop-color="#e94700"/></linearGradient></defs><title>ManhuntVerbs</title><path d="M57.93,43.09c23.45,0,38.71,11.86,39.06,30H73.53C73,65.59,67,61,57.58,61,48.77,61,43,65,43,71c0,4.63,4,7.76,12.2,9.68L73.1,84.51c18.74,4.18,26.33,11.59,26.33,25.54,0,18.4-16.92,30.52-41.59,30.52-24.94,0-40.28-12-41.68-30.25H41c1.22,7.84,7.41,12.38,17.53,12.38,9.67,0,15.52-3.84,15.52-9.94,0-4.71-3.14-7.33-11.51-9.33L45.28,99.59c-17.7-4-26.76-13.25-26.76-27C18.52,54.78,34,43.09,57.93,43.09Z" transform="translate(-16.16 -12.75)"/><path d="M112.07,45.1h24.59V61.75h.52c5-11.59,14.82-18.39,29.21-18.39,20.75,0,32.44,13.07,32.44,35v60.25H173.37V83.64c0-12.21-5.76-19.18-17.18-19.18s-18.66,8.37-18.66,20.48v53.63H112.07Z" transform="translate(-16.16 -12.75)"/><path d="M211.38,111.71c0-17,13.08-26.85,36.36-28.25l23.54-1.39V75.88c0-8.72-6.1-13.78-15.69-13.78s-15.52,4.71-16.74,11.6H215.57c1-18.14,16.39-30.61,41.15-30.61,24,0,39.58,12.38,39.58,31.22v64.26H271.72v-14.3h-.53c-5.23,9.94-16.82,15.78-28.51,15.78C224.9,140.05,211.38,128.54,211.38,111.71Zm59.9-7.41V97.5l-19.7,1.22c-9.51.7-14.91,5-14.91,11.6,0,7,5.75,11.33,14.38,11.33C262.13,121.65,271.28,114.41,271.28,104.3Z" transform="translate(-16.16 -12.75)"/><path d="M345,23.56V45.1h17.26V64.28H345V109c0,7.15,3.49,10.55,11,10.55a41.22,41.22,0,0,0,6.19-.44v18.75a58.52,58.52,0,0,1-12.11,1c-22,0-30.52-7.32-30.52-25.54V64.28H306.33V45.1H319.5V23.56Z" transform="translate(-16.16 -12.75)"/><path d="M436.16,79.89c-1.48-9.85-8-16.83-18.48-16.83-12.56,0-20.41,10.64-20.41,28.69,0,18.39,7.85,28.85,20.49,28.85,10.2,0,16.83-6.1,18.4-16.3h23.72c-1.31,22.06-17.79,36.27-42.38,36.27-28.16,0-46-18.31-46-48.82,0-30,17.87-48.66,45.86-48.66,25.28,0,41.32,15.61,42.46,36.8Z" transform="translate(-16.16 -12.75)"/><path d="M472.78,12.75h25v49h.52c5-11.77,15.17-18.39,29.38-18.39,20.75,0,32.61,13.42,32.61,35.05v60.16H534.86V83.81c0-12-5.93-19.35-17.52-19.35-12,0-19.1,8.45-19.1,20.75v53.36H472.78Z" transform="translate(-16.16 -12.75)"/><path d="M661.81,110c-2.79,18.31-19.53,30.6-42.64,30.6-28.77,0-46-18.4-46-48.3s17.44-49.18,45.08-49.18c27.2,0,44.38,18.4,44.38,46.82v7.76H598.16v1.57c0,13.34,8.46,22.5,21.45,22.5,9.33,0,16.48-4.62,18.83-11.77Zm-63.39-27.9H638.1c-.53-11.95-8.29-20.14-19.62-20.14C607.32,61.93,599.3,70.38,598.42,82.07Z" transform="translate(-16.16 -12.75)"/><path d="M672.28,91.66c0-29.65,14.82-48,38.27-48,13.52,0,24,7.15,28.51,17.52h.53V12.75H765V138.57H739.93v-16h-.43c-4.54,10.29-15.35,17.53-29.12,17.53C687,140.05,672.28,121.56,672.28,91.66Zm26.07.17c0,17.18,7.84,27.73,20.66,27.73,12.64,0,20.75-10.64,20.75-27.73S731.65,64,719,64C706.19,64,698.35,74.74,698.35,91.83Z" transform="translate(-16.16 -12.75)"/><path d="M57.93,43.09c23.45,0,38.71,11.86,39.06,30H73.53C73,65.59,67,61,57.58,61,48.77,61,43,65,43,71c0,4.63,4,7.76,12.2,9.68L73.1,84.51c18.74,4.18,26.33,11.59,26.33,25.54,0,18.4-16.92,30.52-41.59,30.52-24.94,0-40.28-12-41.68-30.25H41c1.22,7.84,7.41,12.38,17.53,12.38,9.67,0,15.52-3.84,15.52-9.94,0-4.71-3.14-7.33-11.51-9.33L45.28,99.59c-17.7-4-26.76-13.25-26.76-27C18.52,54.78,34,43.09,57.93,43.09Z" transform="translate(-16.16 -12.75)" style="fill:url(#linear-gradient)"/><path d="M112.07,45.1h24.59V61.75h.52c5-11.59,14.82-18.39,29.21-18.39,20.75,0,32.44,13.07,32.44,35v60.25H173.37V83.64c0-12.21-5.76-19.18-17.18-19.18s-18.66,8.37-18.66,20.48v53.63H112.07Z" transform="translate(-16.16 -12.75)" style="fill:url(#linear-gradient)"/><path d="M211.38,111.71c0-17,13.08-26.85,36.36-28.25l23.54-1.39V75.88c0-8.72-6.1-13.78-15.69-13.78s-15.52,4.71-16.74,11.6H215.57c1-18.14,16.39-30.61,41.15-30.61,24,0,39.58,12.38,39.58,31.22v64.26H271.72v-14.3h-.53c-5.23,9.94-16.82,15.78-28.51,15.78C224.9,140.05,211.38,128.54,211.38,111.71Zm59.9-7.41V97.5l-19.7,1.22c-9.51.7-14.91,5-14.91,11.6,0,7,5.75,11.33,14.38,11.33C262.13,121.65,271.28,114.41,271.28,104.3Z" transform="translate(-16.16 -12.75)" style="fill:url(#linear-gradient)"/><path d="M345,23.56V45.1h17.26V64.28H345V109c0,7.15,3.49,10.55,11,10.55a41.22,41.22,0,0,0,6.19-.44v18.75a58.52,58.52,0,0,1-12.11,1c-22,0-30.52-7.32-30.52-25.54V64.28H306.33V45.1H319.5V23.56Z" transform="translate(-16.16 -12.75)" style="fill:url(#linear-gradient)"/><path d="M436.16,79.89c-1.48-9.85-8-16.83-18.48-16.83-12.56,0-20.41,10.64-20.41,28.69,0,18.39,7.85,28.85,20.49,28.85,10.2,0,16.83-6.1,18.4-16.3h23.72c-1.31,22.06-17.79,36.27-42.38,36.27-28.16,0-46-18.31-46-48.82,0-30,17.87-48.66,45.86-48.66,25.28,0,41.32,15.61,42.46,36.8Z" transform="translate(-16.16 -12.75)" style="fill:url(#linear-gradient)"/><path d="M472.78,12.75h25v49h.52c5-11.77,15.17-18.39,29.38-18.39,20.75,0,32.61,13.42,32.61,35.05v60.16H534.86V83.81c0-12-5.93-19.35-17.52-19.35-12,0-19.1,8.45-19.1,20.75v53.36H472.78Z" transform="translate(-16.16 -12.75)" style="fill:url(#linear-gradient)"/><path d="M661.81,110c-2.79,18.31-19.53,30.6-42.64,30.6-28.77,0-46-18.4-46-48.3s17.44-49.18,45.08-49.18c27.2,0,44.38,18.4,44.38,46.82v7.76H598.16v1.57c0,13.34,8.46,22.5,21.45,22.5,9.33,0,16.48-4.62,18.83-11.77Zm-63.39-27.9H638.1c-.53-11.95-8.29-20.14-19.62-20.14C607.32,61.93,599.3,70.38,598.42,82.07Z" transform="translate(-16.16 -12.75)" style="fill:url(#linear-gradient)"/><path d="M672.28,91.66c0-29.65,14.82-48,38.27-48,13.52,0,24,7.15,28.51,17.52h.53V12.75H765V138.57H739.93v-16h-.43c-4.54,10.29-15.35,17.53-29.12,17.53C687,140.05,672.28,121.56,672.28,91.66Zm26.07.17c0,17.18,7.84,27.73,20.66,27.73,12.64,0,20.75-10.64,20.75-27.73S731.65,64,719,64C706.19,64,698.35,74.74,698.35,91.83Z" transform="translate(-16.16 -12.75)" style="fill:url(#linear-gradient)"/></svg>